<svg width="100" height="79" viewBox="0 0 100 79" fill="none" xmlns="http://www.w3.org/2000/svg">
<path d="M79.716 20.7635C75.3929 8.76836 63.8782 0 49.9999 0C40.6366 0 32.5056 4.21883 26.6877 10.4318C26.2028 10.3817 25.7786 10.2214 25.2534 10.2214C17.4759 10.2214 11.1125 16.3542 11.1125 23.8499C4.99152 27.4475 0.506836 33.5102 0.506836 40.8856C0.506836 52.1291 10.0519 61.3284 21.7182 61.3284H26.1273L32.9957 54.5141H21.7182C13.87 54.5141 7.57728 48.4414 7.57728 40.8856C7.57728 35.2338 11.1428 30.3936 16.1931 28.3193L18.6274 27.3573L18.294 24.8019C18.2233 24.2407 18.1829 23.9201 18.1829 23.8399C18.1829 20.0319 21.304 17.0256 25.2534 17.0256C25.7483 17.0256 26.3038 17.0958 26.9099 17.2361L29.1219 17.7672L30.4451 16.0636C34.9803 10.4719 42.0507 6.81427 49.9999 6.81427C61.5854 6.81427 71.2517 14.4903 73.9687 24.8119L74.6354 27.4775L77.6151 27.3673C78.3625 27.3272 78.5241 27.2571 78.2817 27.2571C86.1299 27.2571 92.4226 33.3298 92.4226 40.8856C92.4226 48.4414 86.1299 54.5141 78.2817 54.5141H70.7317V61.3284H78.2817C89.9479 61.3284 99.493 52.1291 99.493 40.8856C99.493 30.1331 90.6954 21.5251 79.716 20.7635Z" fill="#0F76BB"/>
<path d="M50.0003 23.1328L40.3169 36.9071H46.4699V46.2655H53.5307V36.9071H59.6838L50.0003 23.1328Z" fill="#0F76BB"/>
<path d="M41.6831 49.6034L28.5825 62.5958C28.5117 62.666 28.4814 62.7561 28.4814 62.8463V78.1928C28.4814 78.3832 28.6431 78.5435 28.835 78.5435H31.1177C31.3097 78.5435 31.4713 78.3832 31.4713 78.1928V65.0301C31.4713 64.8397 31.6329 64.6795 31.8248 64.6795H35.754C39.8246 64.6795 43.1275 61.4038 43.1275 57.3668V53.1395C43.1275 52.9491 43.2891 52.7889 43.481 52.7889H58.9554C61.9755 52.7889 64.43 55.2231 64.43 58.2183V78.1828C64.43 78.3732 64.5916 78.5334 64.7835 78.5334H67.3996C67.5915 78.5334 67.7531 78.3732 67.7531 78.1828V57.9879C67.7531 53.2998 63.9149 49.4932 59.1877 49.4932H41.9356C41.8447 49.4932 41.7538 49.5332 41.6831 49.6034Z" fill="#0F76BB"/>
<path d="M58.9578 66.6147H37.0649V68.6078H58.9578V66.6147Z" fill="#0F76BB"/>
<path d="M45.6912 73.248H37.0649V75.2411H45.6912V73.248Z" fill="#0F76BB"/>
<path d="M58.9679 73.248H48.3486V75.2411H58.9679V73.248Z" fill="#0F76BB"/>
</svg>
