<svg width="24" height="24" viewBox="0 0 24 24" fill="none" xmlns="http://www.w3.org/2000/svg">
<path d="M15.6923 0C11.1274 0 7.38462 3.74279 7.38462 8.30769C7.38462 8.78726 7.46394 9.20914 7.52885 9.63462L0.259615 16.875L0 17.1635V24H6.46154V21.2308H9.23077V18.4615H12V15.7212C13.0889 16.2548 14.3582 16.6154 15.6923 16.6154C20.2572 16.6154 24 12.8726 24 8.30769C24 3.74279 20.2572 0 15.6923 0ZM15.6923 1.84615C19.2512 1.84615 22.1538 4.7488 22.1538 8.30769C22.1538 11.8666 19.2512 14.7692 15.6923 14.7692C14.5745 14.7692 13.4243 14.4411 12.5481 13.9615L12.3173 13.8462H10.1538V16.6154H7.38462V19.3846H4.61538V22.1538H1.84615V17.9423L9.14423 10.6154L9.49039 10.2981L9.40385 9.80769C9.3101 9.2524 9.23077 8.75841 9.23077 8.30769C9.23077 4.7488 12.1334 1.84615 15.6923 1.84615ZM17.5385 4.61538C16.518 4.61538 15.6923 5.44111 15.6923 6.46154C15.6923 7.48197 16.518 8.30769 17.5385 8.30769C18.5589 8.30769 19.3846 7.48197 19.3846 6.46154C19.3846 5.44111 18.5589 4.61538 17.5385 4.61538Z" fill="#B8B8B8"/>
</svg>
