<svg width="185" height="59" viewBox="0 0 185 59" fill="none" xmlns="http://www.w3.org/2000/svg">
<path d="M0 42.3019C0 38.307 0 36.3095 0.150106 34.6258C1.78341 16.3045 16.3045 1.78341 34.6258 0.150106C36.3095 0 38.307 0 42.3019 0H166.764C167.912 0 168.486 0 168.971 0.0277253C177.596 0.52092 184.479 7.4045 184.972 16.0295C185 16.5143 185 17.0884 185 18.2364C185 20.8025 185 22.0856 184.938 23.1694C183.836 42.4488 168.449 57.8356 149.169 58.938C148.086 59 146.803 59 144.236 59H16.6981C15.1212 59 14.3327 59 13.6681 58.9407C6.43598 58.296 0.703979 52.564 0.0592524 45.3319C0 44.6673 0 43.8788 0 42.3019Z" fill="url(#paint0_linear_8_219)"/>
<path d="M44.0989 36.32C42.8689 36.98 41.6389 37.22 40.3189 37.22C36.2989 37.22 33.5089 34.43 33.5089 30.5C33.5089 26.51 36.2989 23.78 40.3789 23.78C42.5089 23.78 44.2789 24.53 45.8089 26.15L48.9289 23.27C46.8889 20.9 43.8289 19.64 40.1389 19.64C33.4489 19.64 28.5889 24.17 28.5889 30.5C28.5889 36.83 33.4489 41.36 40.0489 41.36C43.0489 41.36 46.2289 40.43 48.5389 38.69V30.17H44.0989V36.32ZM68.5335 32.99C68.5335 27.8 64.8735 24.62 60.1335 24.62C55.2135 24.62 51.5235 28.1 51.5235 32.93C51.5235 37.73 55.1535 41.24 60.7335 41.24C63.6435 41.24 65.8935 40.34 67.3935 38.63L64.9035 35.93C63.7935 36.98 62.5635 37.49 60.8535 37.49C58.3935 37.49 56.6835 36.26 56.2335 34.25H68.4435C68.4735 33.86 68.5335 33.35 68.5335 32.99ZM60.1635 28.16C62.2635 28.16 63.7935 29.48 64.1235 31.52H56.1735C56.5035 29.45 58.0335 28.16 60.1635 28.16ZM79.3293 41.24C84.4593 41.24 88.1793 37.79 88.1793 32.93C88.1793 28.07 84.4593 24.62 79.3293 24.62C74.1993 24.62 70.4493 28.07 70.4493 32.93C70.4493 37.79 74.1993 41.24 79.3293 41.24ZM79.3293 37.4C76.9893 37.4 75.1893 35.72 75.1893 32.93C75.1893 30.14 76.9893 28.46 79.3293 28.46C81.6693 28.46 83.4393 30.14 83.4393 32.93C83.4393 35.72 81.6693 37.4 79.3293 37.4ZM99.4536 28.55L104.194 23.15V20H89.4936V23.9H98.4336L94.1136 28.79V32H96.3336C99.0936 32 100.264 32.99 100.264 34.58C100.264 36.29 98.7636 37.28 96.3336 37.28C94.1436 37.28 91.9236 36.59 90.3336 35.39L88.4436 39.11C90.4836 40.55 93.5136 41.36 96.4536 41.36C102.424 41.36 105.154 38.12 105.154 34.58C105.154 31.49 103.234 29.15 99.4536 28.55ZM117.508 27.83C115.318 27.83 113.548 28.46 112.318 29.69C112.468 25.67 114.718 23.6 118.228 23.6C119.638 23.6 120.988 23.87 122.158 24.65L123.958 21.08C122.488 20.15 120.328 19.64 118.108 19.64C111.778 19.64 107.398 23.69 107.398 30.95C107.398 37.73 110.998 41.36 116.788 41.36C121.228 41.36 124.738 38.66 124.738 34.37C124.738 30.41 121.558 27.83 117.508 27.83ZM116.518 37.73C114.178 37.73 112.828 36.41 112.828 34.61C112.828 32.78 114.328 31.46 116.458 31.46C118.618 31.46 120.028 32.69 120.028 34.61C120.028 36.53 118.588 37.73 116.518 37.73ZM135.499 41.36C140.689 41.36 144.499 37.43 144.499 30.5C144.499 23.57 140.689 19.64 135.499 19.64C130.339 19.64 126.499 23.57 126.499 30.5C126.499 37.43 130.339 41.36 135.499 41.36ZM135.499 37.25C133.099 37.25 131.419 35.27 131.419 30.5C131.419 25.73 133.099 23.75 135.499 23.75C137.929 23.75 139.609 25.73 139.609 30.5C139.609 35.27 137.929 37.25 135.499 37.25ZM152.14 31.43C155.62 31.43 158.02 29 158.02 24.95C158.02 20.93 155.62 18.5 152.14 18.5C148.66 18.5 146.26 20.93 146.26 24.95C146.26 29 148.66 31.43 152.14 31.43ZM152.14 28.79C150.64 28.79 149.56 27.62 149.56 24.95C149.56 22.28 150.64 21.14 152.14 21.14C153.64 21.14 154.72 22.28 154.72 24.95C154.72 27.62 153.64 28.79 152.14 28.79Z" fill="white"/>
<defs>
<linearGradient id="paint0_linear_8_219" x1="176.695" y1="4.25" x2="9.88967" y2="66.6686" gradientUnits="userSpaceOnUse">
<stop stop-color="#30ADC9"/>
<stop offset="1" stop-color="#211EAC"/>
</linearGradient>
</defs>
</svg>
