<svg width="27" height="23" viewBox="0 0 27 23" fill="none" xmlns="http://www.w3.org/2000/svg">
<path d="M2 0V2H0V4H2V6H4V4H6V2H4V0H2ZM17.2812 2.9375L15.625 3C10.2812 3.19141 6 7.57812 6 12.9688C6 18.4805 10.4883 22.9688 16 22.9688C21.3906 22.9688 25.7773 18.6875 25.9688 13.3438L26.0312 11.7188L24.5625 12.4062C23.7812 12.7773 22.9141 12.9688 22 12.9688C18.6758 12.9688 16 10.293 16 6.96875C16 6.05469 16.2227 5.21875 16.5938 4.4375L17.2812 2.9375ZM14.375 5.3125C14.25 5.86719 14 6.375 14 6.96875C14 11.375 17.5938 14.9688 22 14.9688C22.6055 14.9688 23.1211 14.7227 23.6875 14.5938C22.9258 18.2188 19.8594 20.9688 16 20.9688C11.5703 20.9688 8 17.3984 8 12.9688C8 9.11719 10.7578 6.08203 14.375 5.3125Z" fill="#B8B8B8"/>
</svg>
